<?xml version="1.0" encoding="UTF-8"?>
<svg id="Layer_2" data-name="Layer 2" xmlns="http://www.w3.org/2000/svg" viewBox="0 0 395.12 77.5">
  <defs>
    <style>
      .cls-1 {
        fill: #111;
      }
    </style>
  </defs>
  <g id="Layer_2-2" data-name="Layer 2">
    <g>
      <path class="cls-1" d="M76.5,0H.99C.44,0,0,.44,0,.99v75.51c0,.55.44.99.99.99h21.61c.62,0,1.08-.56.97-1.17l-6.45-35.72c-.18-1.02,1.13-1.6,1.76-.78l28.54,37.28c.19.24.48.39.79.39h28.29c.55,0,.99-.44.99-.99v-28.78c0-.37-.2-.7-.53-.88L20.25,16.85c-1.03-.55-.43-2.12.7-1.84l55.31,13.7c.62.15,1.23-.32,1.23-.96V.99c0-.55-.44-.99-.99-.99Z"/>
      <path class="cls-1" d="M151.56,0h-47.03c-.55,0-.99.44-.99.99v75.51c0,.55.44.99.99.99h16.14c.55,0,.99-.44.99-.99v-26.62c0-.55.44-.99.99-.99h23.53c.55,0,.99-.44.99-.99v-15.59c0-.55-.44-.99-.99-.99h-23.53c-.55,0-.99-.44-.99-.99v-11.78c0-.55.44-.99.99-.99h28.9c.55,0,.99-.44.99-.99V.99c0-.55-.44-.99-.99-.99Z"/>
      <path class="cls-1" d="M229.21,0h-16.26c-.55,0-.99.44-.99.99v43.56c0,4.84-1.1,8.6-3.3,11.28-2.2,2.68-5.54,4.02-10.01,4.02s-7.72-1.34-9.96-4.02c-2.24-2.68-3.36-6.44-3.36-11.28V.99c0-.55-.44-.99-.99-.99h-16.14c-.55,0-.99.44-.99.99v42.45c0,7.52,1.16,13.81,3.47,18.87,2.31,5.06,5.8,8.86,10.46,11.39,4.66,2.53,10.5,3.8,17.51,3.8s12.94-1.27,17.57-3.8c4.62-2.53,8.11-6.33,10.46-11.39,2.35-5.06,3.52-11.35,3.52-18.87V.99c0-.55-.44-.99-.99-.99Z"/>
      <path class="cls-1" d="M317.69,35.46c-.09-.46-.5-.78-.97-.78h-34.73c-.55,0-.99.44-.99.99v13.72c0,.55.44.99.99.99h16.42c.73,0,1.22.78.89,1.43-.31.61-.66,1.2-1.04,1.75-1.61,2.34-3.76,4.15-6.43,5.43-2.68,1.28-5.81,1.92-9.4,1.92-3.89,0-7.31-.88-10.28-2.63-2.97-1.76-5.32-4.26-7.04-7.52-1.72-3.26-2.58-7.01-2.58-11.25,0-4.68.86-8.67,2.58-11.96,1.72-3.29,4.09-5.84,7.09-7.63,3.01-1.79,6.45-2.69,10.34-2.69,4.11,0,7.66.92,10.67,2.74,2.8,1.7,5.18,4.23,7.15,7.58.25.43.78.62,1.24.42l14.33-6.07c.51-.22.75-.81.52-1.32-2.92-6.5-7.09-11.51-12.52-15.04-5.68-3.69-12.81-5.54-21.39-5.54-5.65,0-10.82.95-15.51,2.85-4.69,1.9-8.73,4.59-12.1,8.07-3.37,3.48-5.98,7.63-7.81,12.46-1.83,4.83-2.75,10.21-2.75,16.14,0,7.32,1.6,13.85,4.78,19.59,3.19,5.75,7.64,10.25,13.36,13.5,5.72,3.26,12.39,4.88,20.02,4.88,4.69,0,9.18-.79,13.47-2.36,4.29-1.57,8.12-3.86,11.49-6.86,3.37-3,6.03-6.62,7.97-10.87,1.94-4.24,2.91-9,2.91-14.27,0-1.46-.07-2.93-.22-4.39-.12-1.16-.28-2.26-.49-3.28Z"/>
      <path class="cls-1" d="M395.07,76.19L369.29.67c-.14-.4-.51-.67-.94-.67h-17.71c-.43,0-.81.27-.94.68l-24.92,75.51c-.21.64.27,1.3.94,1.3h15.95c.47,0,.87-.33.97-.79l2.65-12.59c.1-.46.5-.79.97-.79h24.95c.41,0,.78.26.93.64l4.89,12.88c.15.39.51.64.93.64h16.17c.68,0,1.16-.67.94-1.31ZM365.38,46.55h-12.82c-.68,0-1.16-.67-.94-1.31l6.72-19.76c.31-.91,1.6-.89,1.88.03l6.1,19.76c.2.64-.28,1.28-.95,1.28Z"/>
    </g>
  </g>
</svg>